{
  "accessors": [
    {
      "bufferView": 2,
      "componentType": 5126,
      "count": 731,
      "max": [
        0.5970420241355896,
        0.5611940026283264,
        0.5954089760780334
      ],
      "min": [
        -0.5970420241355896,
        -1.0,
        -0.5954089760780334
      ],
      "type": "VEC3"
    },
    {
      "bufferView": 2,
      "byteOffset": 8772,
      "componentType": 5126,
      "count": 731,
      "max": [
        0.9948213696479797,
        1.0,
        0.9921280145645142
      ],
      "min": [
        -0.9948213696479797,
        -1.0,
        -0.9921280145645142
      ],
      "type": "VEC3"
    },
    {
      "bufferView": 3,
      "componentType": 5126,
      "count": 731,
      "max": [
        1.0,
        0.7231729626655579,
        0.9999999403953552,
        1.0
      ],
      "min": [
        -0.9985936880111694,
        -0.7231728434562683,
        -0.9999974966049194,
        1.0
      ],
      "type": "VEC4"
    },
    {
      "bufferView": 1,
      "componentType": 5126,
      "count": 731,
      "max": [
        0.9906550049781799,
        0.9935129880905151
      ],
      "min": [
        0.004381840117275715,
        0.005213520023971796
      ],
      "type": "VEC2"
    },
    {
      "bufferView": 0,
      "componentType": 5125,
      "count": 3528,
      "type": "SCALAR"
    },
    {
      "bufferView": 2,
      "byteOffset": 17544,
      "componentType": 5126,
      "count": 48,
      "max": [
        0.5481969714164734,
        1.0,
        0.5427259802818298
      ],
      "min": [
        -0.3299199938774109,
        0.5292819738388062,
        -0.5427259802818298
      ],
      "type": "VEC3"
    },
    {
      "bufferView": 2,
      "byteOffset": 18120,
      "componentType": 5126,
      "count": 48,
      "max": [
        0.9858304858207703,
        1.0,
        3.922552025414916e-07
      ],
      "min": [
        -1.8203800209448673e-06,
        0.16774506866931915,
        -4.3711398944878965e-08
      ],
      "type": "VEC3"
    },
    {
      "bufferView": 3,
      "byteOffset": 11696,
      "componentType": 5126,
      "count": 48,
      "max": [
        1.0,
        0.003841494908556342,
        0.9999833703041077,
        1.0
      ],
      "min": [
        -0.005872421897947788,
        -0.9858304858207703,
        -6.844578456366435e-05,
        1.0
      ],
      "type": "VEC4"
    },
    {
      "bufferView": 1,
      "byteOffset": 5848,
      "componentType": 5126,
      "count": 48,
      "max": [
        0.9994999766349792,
        0.9822580218315125
      ],
      "min": [
        0.0005000000237487257,
        0.0005000000237487257
      ],
      "type": "VEC2"
    },
    {
      "bufferView": 0,
      "byteOffset": 14112,
      "componentType": 5125,
      "count": 132,
      "type": "SCALAR"
    }
  ],
  "asset": {
    "extras": {
      "author": "Urpo (https://sketchfab.com/Urpo)",
      "license": "CC-BY-4.0 (http://creativecommons.org/licenses/by/4.0/)",
      "source": "https://sketchfab.com/3d-models/can-of-beans-566323fb276f4fa7ac2943b38bb4e98d",
      "title": "Can of beans"
    },
    "generator": "Sketchfab-12.67.0",
    "version": "2.0"
  },
  "bufferViews": [
    {
      "buffer": 0,
      "byteLength": 14640,
      "name": "floatBufferViews",
      "target": 34963
    },
    {
      "buffer": 0,
      "byteLength": 6232,
      "byteOffset": 14640,
      "byteStride": 8,
      "name": "floatBufferViews",
      "target": 34962
    },
    {
      "buffer": 0,
      "byteLength": 18696,
      "byteOffset": 20872,
      "byteStride": 12,
      "name": "floatBufferViews",
      "target": 34962
    },
    {
      "buffer": 0,
      "byteLength": 12464,
      "byteOffset": 39568,
      "byteStride": 16,
      "name": "floatBufferViews",
      "target": 34962
    }
  ],
  "buffers": [
    {
      "byteLength": 52032,
      "uri": "scene.bin"
    }
  ],
  "images": [
    {
      "uri": "textures/Material__101_baseColor.png"
    },
    {
      "uri": "textures/Material__101_metallicRoughness.png"
    },
    {
      "uri": "textures/Material__101_normal.png"
    },
    {
      "uri": "textures/Material__103_baseColor.jpeg"
    },
    {
      "uri": "textures/Material__103_metallicRoughness.png"
    },
    {
      "uri": "textures/Material__103_normal.png"
    }
  ],
  "materials": [
    {
      "alphaMode": "BLEND",
      "doubleSided": true,
      "name": "Material__101",
      "normalTexture": {
        "index": 2
      },
      "occlusionTexture": {
        "index": 1
      },
      "pbrMetallicRoughness": {
        "baseColorTexture": {
          "index": 0
        },
        "metallicRoughnessTexture": {
          "index": 1
        }
      }
    },
    {
      "doubleSided": true,
      "name": "Material__103",
      "normalTexture": {
        "index": 5
      },
      "occlusionTexture": {
        "index": 4
      },
      "pbrMetallicRoughness": {
        "baseColorTexture": {
          "index": 3
        },
        "metallicRoughnessTexture": {
          "index": 4
        }
      }
    }
  ],
  "meshes": [
    {
      "name": "defaultMaterial",
      "primitives": [
        {
          "attributes": {
            "NORMAL": 1,
            "POSITION": 0,
            "TANGENT": 2,
            "TEXCOORD_0": 3
          },
          "indices": 4,
          "material": 1,
          "mode": 4
        }
      ]
    },
    {
      "name": "defaultMaterial",
      "primitives": [
        {
          "attributes": {
            "NORMAL": 6,
            "POSITION": 5,
            "TANGENT": 7,
            "TEXCOORD_0": 8
          },
          "indices": 9,
          "material": 0,
          "mode": 4
        }
      ]
    }
  ],
  "nodes": [
    {
      "children": [
        1
      ],
      "matrix": [
        1.0,
        0.0,
        0.0,
        0.0,
        0.0,
        2.220446049250313e-16,
        -1.0,
        0.0,
        0.0,
        1.0,
        2.220446049250313e-16,
        0.0,
        0.0,
        0.0,
        0.0,
        1.0
      ],
      "name": "Sketchfab_model"
    },
    {
      "children": [
        2,
        4
      ],
      "matrix": [
        1.0,
        0.0,
        0.0,
        0.0,
        0.0,
        -4.371139006309477e-08,
        0.999999999999999,
        0.0,
        0.0,
        -0.999999999999999,
        -4.371139006309477e-08,
        0.0,
        0.0,
        0.0,
        0.0,
        1.0
      ],
      "name": "Collada visual scene group"
    },
    {
      "children": [
        3
      ],
      "name": "Can_LP"
    },
    {
      "mesh": 0,
      "name": "defaultMaterial"
    },
    {
      "children": [
        5
      ],
      "name": "Can_LP"
    },
    {
      "mesh": 1,
      "name": "defaultMaterial"
    }
  ],
  "samplers": [
    {
      "magFilter": 9729,
      "minFilter": 9987,
      "wrapS": 10497,
      "wrapT": 10497
    }
  ],
  "scene": 0,
  "scenes": [
    {
      "name": "Sketchfab_Scene",
      "nodes": [
        0
      ]
    }
  ],
  "textures": [
    {
      "sampler": 0,
      "source": 0
    },
    {
      "sampler": 0,
      "source": 1
    },
    {
      "sampler": 0,
      "source": 2
    },
    {
      "sampler": 0,
      "source": 3
    },
    {
      "sampler": 0,
      "source": 4
    },
    {
      "sampler": 0,
      "source": 5
    }
  ]
}
